<?xml version="1.0" encoding="UTF-8"?>
<svg id="Layer_1" data-name="Layer 1" xmlns="http://www.w3.org/2000/svg" viewBox="0 0 1188.67 682.8">
  <defs>
    <style>
      .cls-1 {
        fill: none;
      }

      .cls-2 {
        fill: #02333d;
      }

      .cls-3 {
        fill: #fff9f2;
      }

      .cls-4 {
        fill: #a1a8ad;
      }

      .cls-5 {
        fill: #00232f;
      }

      .cls-6 {
        fill: #4a4f55;
      }

      .cls-7 {
        fill: #00b2e2;
      }
    </style>
  </defs>
  <rect class="cls-1" y="57.15" width="1188.67" height="573"/>
  <g>
    <g>
      <path class="cls-2" d="M116.77,532.17v19.31h-11.59c-8.26,0-14.7-2.02-19.31-6.06-4.62-4.04-6.93-10.63-6.93-19.78v-29.58h-9.06v-18.91h9.06v-18.12h22.78v18.12h14.92v18.91h-14.92v29.84c0,2.23.53,3.82,1.6,4.8s2.84,1.47,5.33,1.47h8.12Z"/>
      <path class="cls-2" d="M189.1,484.81c5.15,5.64,7.73,13.39,7.73,23.24v43.43h-22.65v-40.36c0-4.97-1.29-8.84-3.87-11.59-2.57-2.75-6.04-4.13-10.39-4.13s-7.82,1.38-10.39,4.13c-2.58,2.75-3.87,6.62-3.87,11.59v40.36h-22.78v-98.57h22.78v34.23c2.31-3.29,5.46-5.91,9.46-7.86,4-1.95,8.48-2.93,13.45-2.93,8.53,0,15.36,2.82,20.52,8.46Z"/>
      <path class="cls-2" d="M275.69,519.78h-51.55c.35,4.62,1.84,8.15,4.46,10.59,2.62,2.44,5.84,3.66,9.66,3.66,5.68,0,9.64-2.4,11.86-7.19h24.24c-1.24,4.88-3.49,9.28-6.73,13.19-3.24,3.91-7.31,6.97-12.19,9.19-4.89,2.23-10.35,3.33-16.38,3.33-7.28,0-13.77-1.55-19.45-4.66-5.69-3.11-10.13-7.55-13.32-13.32-3.2-5.77-4.79-12.52-4.79-20.25s1.57-14.47,4.73-20.25c3.15-5.77,7.57-10.21,13.26-13.32,5.68-3.11,12.21-4.66,19.58-4.66s13.59,1.51,19.18,4.53c5.59,3.03,9.97,7.33,13.12,12.93,3.15,5.59,4.73,12.12,4.73,19.58,0,2.13-.13,4.35-.4,6.66ZM252.78,507.13c0-3.9-1.33-7.01-4-9.33-2.66-2.31-5.99-3.46-9.99-3.46s-7.04,1.12-9.66,3.33c-2.62,2.22-4.24,5.37-4.86,9.46h28.51Z"/>
      <path class="cls-2" d="M335.1,479.29c3.91-2.13,8.48-3.2,13.72-3.2,6.13,0,11.68,1.55,16.65,4.66,4.97,3.11,8.9,7.55,11.79,13.32,2.89,5.78,4.33,12.48,4.33,20.12s-1.44,14.37-4.33,20.18c-2.89,5.82-6.82,10.3-11.79,13.45-4.97,3.16-10.52,4.73-16.65,4.73-5.15,0-9.7-1.07-13.65-3.2-3.95-2.14-7.04-4.88-9.26-8.26v45.83h-22.78v-109.76h22.78v10.52c2.22-3.46,5.29-6.26,9.19-8.39ZM353.69,500.8c-3.15-3.24-7.04-4.86-11.66-4.86s-8.37,1.64-11.52,4.93c-3.15,3.29-4.73,7.77-4.73,13.45s1.57,10.17,4.73,13.45c3.15,3.29,6.99,4.93,11.52,4.93s8.39-1.66,11.59-5c3.2-3.33,4.8-7.83,4.8-13.52s-1.58-10.14-4.73-13.39Z"/>
      <path class="cls-2" d="M386.85,494.07c2.89-5.77,6.82-10.21,11.79-13.32,4.97-3.11,10.52-4.66,16.65-4.66,5.24,0,9.84,1.07,13.79,3.2s6.99,4.93,9.13,8.39v-10.52h22.78v74.33h-22.78v-10.52c-2.22,3.46-5.31,6.26-9.26,8.39-3.95,2.13-8.55,3.2-13.79,3.2-6.04,0-11.55-1.57-16.52-4.73-4.97-3.15-8.9-7.63-11.79-13.45-2.89-5.81-4.33-12.54-4.33-20.18s1.44-14.34,4.33-20.12ZM433.47,500.87c-3.15-3.29-6.99-4.93-11.52-4.93s-8.37,1.62-11.52,4.86c-3.16,3.25-4.73,7.7-4.73,13.39s1.57,10.19,4.73,13.52c3.15,3.33,6.99,5,11.52,5s8.37-1.64,11.52-4.93c3.15-3.29,4.73-7.77,4.73-13.45s-1.58-10.17-4.73-13.45Z"/>
      <path class="cls-2" d="M503.74,479.88c4-2.35,8.44-3.53,13.32-3.53v24.11h-6.26c-5.68,0-9.94,1.23-12.79,3.66-2.84,2.44-4.27,6.73-4.27,12.86v34.5h-22.78v-74.33h22.78v12.39c2.67-4.08,6-7.31,9.99-9.66Z"/>
      <path class="cls-2" d="M566.88,551.49l-22.65-31.17v31.17h-22.78v-98.57h22.78v54.48l22.51-30.24h28.11l-30.91,37.29,31.17,37.03h-28.24Z"/>
      <path class="cls-2" d="M666.79,519.78h-51.56c.36,4.62,1.84,8.15,4.46,10.59,2.62,2.44,5.84,3.66,9.65,3.66,5.68,0,9.64-2.4,11.86-7.19h24.24c-1.25,4.88-3.49,9.28-6.73,13.19-3.24,3.91-7.31,6.97-12.19,9.19-4.88,2.23-10.35,3.33-16.38,3.33-7.28,0-13.77-1.55-19.44-4.66-5.69-3.11-10.13-7.55-13.32-13.32-3.2-5.77-4.79-12.52-4.79-20.25s1.57-14.47,4.72-20.25c3.15-5.77,7.57-10.21,13.26-13.32,5.68-3.11,12.21-4.66,19.58-4.66s13.59,1.51,19.18,4.53c5.59,3.03,9.97,7.33,13.12,12.93,3.15,5.59,4.73,12.12,4.73,19.58,0,2.13-.14,4.35-.4,6.66ZM643.88,507.13c0-3.9-1.33-7.01-4-9.33-2.66-2.31-5.99-3.46-9.99-3.46s-7.04,1.12-9.65,3.33c-2.62,2.22-4.25,5.37-4.87,9.46h28.51Z"/>
      <path class="cls-2" d="M705.42,479.88c3.99-2.35,8.44-3.53,13.32-3.53v24.11h-6.26c-5.68,0-9.95,1.23-12.79,3.66-2.84,2.44-4.27,6.73-4.27,12.86v34.5h-22.77v-74.33h22.77v12.39c2.67-4.08,6-7.31,10-9.66Z"/>
      <path class="cls-2" d="M786.74,479.29c3.95,2.13,7,4.93,9.13,8.39v-10.52h22.78v74.2c0,6.83-1.36,13.03-4.06,18.58-2.71,5.55-6.84,9.97-12.39,13.26-5.55,3.28-12.45,4.92-20.71,4.92-11.02,0-19.94-2.59-26.78-7.79-6.84-5.2-10.74-12.24-11.72-21.12h22.51c.71,2.84,2.4,5.09,5.06,6.73,2.67,1.64,5.95,2.46,9.86,2.46,4.71,0,8.46-1.36,11.26-4.06,2.8-2.71,4.2-7.05,4.2-12.99v-10.52c-2.22,3.46-5.29,6.28-9.19,8.46-3.91,2.18-8.48,3.27-13.72,3.27-6.13,0-11.68-1.57-16.65-4.73-4.98-3.15-8.91-7.63-11.79-13.45-2.89-5.81-4.33-12.54-4.33-20.18s1.44-14.34,4.33-20.12c2.88-5.77,6.81-10.21,11.79-13.32,4.97-3.11,10.52-4.66,16.65-4.66,5.24,0,9.83,1.07,13.78,3.2ZM791.14,500.87c-3.15-3.29-6.99-4.93-11.52-4.93s-8.37,1.62-11.52,4.86c-3.16,3.25-4.73,7.7-4.73,13.39s1.57,10.19,4.73,13.52c3.15,3.33,6.99,5,11.52,5s8.37-1.64,11.52-4.93c3.16-3.29,4.73-7.77,4.73-13.45s-1.57-10.17-4.73-13.45Z"/>
      <path class="cls-2" d="M861.4,479.88c4-2.35,8.44-3.53,13.32-3.53v24.11h-6.26c-5.68,0-9.94,1.23-12.78,3.66-2.85,2.44-4.27,6.73-4.27,12.86v34.5h-22.78v-74.33h22.78v12.39c2.66-4.08,6-7.31,9.99-9.66Z"/>
      <path class="cls-2" d="M893.17,547.89c-5.82-3.11-10.39-7.55-13.72-13.32-3.33-5.77-4.99-12.52-4.99-20.25s1.68-14.36,5.06-20.18c3.38-5.81,7.99-10.28,13.85-13.39,5.86-3.11,12.43-4.66,19.72-4.66s13.85,1.55,19.71,4.66c5.87,3.11,10.48,7.57,13.86,13.39,3.38,5.82,5.06,12.54,5.06,20.18s-1.71,14.36-5.13,20.18c-3.42,5.82-8.08,10.28-13.99,13.39-5.9,3.11-12.5,4.66-19.78,4.66s-13.84-1.55-19.65-4.66ZM923.95,528.04c3.06-3.2,4.59-7.77,4.59-13.72s-1.49-10.52-4.46-13.72c-2.98-3.2-6.64-4.8-10.99-4.8s-8.13,1.58-11.06,4.73c-2.93,3.16-4.4,7.75-4.4,13.79s1.44,10.52,4.33,13.72c2.89,3.2,6.5,4.79,10.86,4.79s8.06-1.6,11.13-4.79Z"/>
      <path class="cls-2" d="M1030.72,477.16v74.33h-22.78v-10.13c-2.31,3.29-5.44,5.93-9.39,7.93-3.95,2-8.33,3-13.13,3-5.68,0-10.7-1.27-15.05-3.8-4.35-2.53-7.72-6.19-10.13-10.99-2.4-4.79-3.59-10.43-3.59-16.92v-43.42h22.65v40.36c0,4.97,1.28,8.84,3.86,11.58,2.57,2.76,6.04,4.14,10.39,4.14s7.95-1.38,10.52-4.14c2.57-2.75,3.87-6.61,3.87-11.58v-40.36h22.78Z"/>
      <path class="cls-2" d="M1072.55,479.29c3.9-2.13,8.48-3.2,13.72-3.2,6.13,0,11.67,1.55,16.65,4.66,4.97,3.11,8.9,7.55,11.79,13.32,2.88,5.78,4.33,12.48,4.33,20.12s-1.44,14.37-4.33,20.18c-2.89,5.82-6.82,10.3-11.79,13.45-4.98,3.16-10.52,4.73-16.65,4.73-5.16,0-9.71-1.07-13.66-3.2-3.95-2.14-7.04-4.88-9.26-8.26v45.83h-22.78v-109.76h22.78v10.52c2.22-3.46,5.29-6.26,9.2-8.39ZM1091.13,500.8c-3.16-3.24-7.04-4.86-11.66-4.86s-8.37,1.64-11.52,4.93c-3.15,3.29-4.72,7.77-4.72,13.45s1.57,10.17,4.72,13.45c3.16,3.29,7,4.93,11.52,4.93s8.39-1.66,11.59-5c3.2-3.33,4.8-7.83,4.8-13.52s-1.58-10.14-4.73-13.39Z"/>
    </g>
    <path class="cls-5" d="M260.15,631.82h19.62v34.58h-5.74v-29.85h-13.88v29.85h-5.74v-29.85h-4.42v-4.73h4.42v-2.46c0-3.87,1-6.7,3-8.49,2-1.79,5.21-2.68,9.62-2.68v4.8c-2.52,0-4.3.49-5.33,1.48-1.03.99-1.55,2.62-1.55,4.89v2.46ZM276.93,626.2c-1.09,0-2.01-.38-2.74-1.14-.74-.76-1.1-1.68-1.1-2.78s.37-2.02,1.1-2.78c.74-.76,1.65-1.14,2.74-1.14s2.01.38,2.74,1.14c.74.76,1.1,1.68,1.1,2.78s-.37,2.02-1.1,2.78c-.74.76-1.65,1.14-2.74,1.14h0ZM306.21,631.19c4.21,0,7.61,1.27,10.22,3.82,2.61,2.55,3.91,6.22,3.91,11.01v20.38h-5.68v-19.56c0-3.45-.86-6.09-2.59-7.92-1.73-1.83-4.08-2.74-7.07-2.74s-5.44.95-7.22,2.84c-1.79,1.89-2.68,4.65-2.68,8.27v19.12h-5.74v-34.58h5.74v4.92c1.14-1.77,2.68-3.13,4.64-4.1,1.96-.97,4.11-1.45,6.47-1.45h0ZM327.6,648.98c0-3.53.71-6.64,2.15-9.31,1.43-2.67,3.4-4.74,5.9-6.22,2.5-1.47,5.31-2.21,8.42-2.21,2.69,0,5.19.62,7.51,1.86,2.31,1.24,4.08,2.87,5.3,4.89v-18.3h5.81v46.69h-5.81v-6.5c-1.14,2.06-2.82,3.75-5.05,5.08-2.23,1.33-4.84,1.99-7.82,1.99s-5.86-.76-8.36-2.27c-2.5-1.51-4.47-3.64-5.9-6.37-1.43-2.73-2.15-5.85-2.15-9.34h0ZM356.88,649.04c0-2.61-.53-4.88-1.58-6.81-1.05-1.93-2.47-3.42-4.26-4.45-1.79-1.03-3.75-1.55-5.9-1.55s-4.1.5-5.87,1.51c-1.77,1.01-3.18,2.48-4.23,4.42-1.05,1.94-1.58,4.21-1.58,6.81s.53,4.95,1.58,6.91c1.05,1.96,2.46,3.45,4.23,4.48,1.77,1.03,3.72,1.55,5.87,1.55s4.11-.51,5.9-1.55c1.79-1.03,3.21-2.52,4.26-4.48,1.05-1.96,1.58-4.24,1.58-6.85h0ZM419.03,631.82l-20.82,50.86h-5.93l6.81-16.66-13.95-34.2h6.37l10.85,28.02,10.73-28.02h5.93ZM439.85,666.96c-3.24,0-6.17-.74-8.8-2.21-2.63-1.47-4.69-3.57-6.18-6.28-1.49-2.71-2.24-5.86-2.24-9.43s.77-6.66,2.3-9.37c1.54-2.71,3.63-4.8,6.28-6.25,2.65-1.45,5.62-2.18,8.9-2.18s6.25.73,8.9,2.18c2.65,1.45,4.74,3.52,6.28,6.22,1.54,2.69,2.3,5.83,2.3,9.4s-.79,6.72-2.37,9.43-3.71,4.81-6.4,6.28c-2.69,1.47-5.68,2.21-8.96,2.21h0ZM439.85,661.92c2.06,0,4-.48,5.81-1.45,1.81-.97,3.27-2.42,4.39-4.35,1.11-1.93,1.67-4.29,1.67-7.07s-.55-5.13-1.64-7.07c-1.09-1.93-2.52-3.38-4.29-4.32-1.77-.95-3.68-1.42-5.74-1.42s-4.03.47-5.77,1.42c-1.75.95-3.15,2.39-4.2,4.32-1.05,1.94-1.58,4.29-1.58,7.07s.51,5.2,1.55,7.13c1.03,1.94,2.41,3.38,4.13,4.32,1.72.95,3.62,1.42,5.68,1.42h0ZM495.82,631.82v34.58h-5.74v-5.11c-1.09,1.77-2.62,3.15-4.57,4.13-1.96.99-4.11,1.48-6.47,1.48-2.69,0-5.11-.56-7.26-1.67-2.15-1.11-3.84-2.79-5.08-5.02-1.24-2.23-1.86-4.94-1.86-8.14v-20.26h5.68v19.5c0,3.41.86,6.03,2.59,7.86,1.72,1.83,4.08,2.74,7.07,2.74s5.49-.95,7.26-2.84c1.77-1.89,2.65-4.65,2.65-8.27v-18.99h5.74ZM511.28,637.43c1.01-1.98,2.45-3.51,4.32-4.61,1.87-1.09,4.15-1.64,6.85-1.64v5.93h-1.51c-6.44,0-9.65,3.49-9.65,10.47v18.8h-5.74v-34.58h5.74v5.62h0ZM563.09,631.19c2.61,0,4.96.56,7.07,1.67,2.1,1.12,3.75,2.79,4.95,5.02,1.2,2.23,1.8,4.94,1.8,8.14v20.38h-5.68v-19.56c0-3.45-.86-6.09-2.59-7.92-1.73-1.83-4.08-2.74-7.07-2.74s-5.44.95-7.22,2.84c-1.79,1.89-2.68,4.65-2.68,8.27v19.12h-5.74v-46.69h5.74v17.04c1.14-1.77,2.7-3.13,4.7-4.1,2-.97,4.24-1.45,6.72-1.45h0ZM584.16,648.98c0-3.53.71-6.64,2.15-9.31,1.43-2.67,3.4-4.74,5.9-6.22,2.5-1.47,5.29-2.21,8.36-2.21s5.66.65,7.89,1.96c2.23,1.3,3.89,2.94,4.98,4.92v-6.31h5.81v34.58h-5.81v-6.44c-1.14,2.02-2.83,3.69-5.08,5.02-2.25,1.33-4.87,1.99-7.86,1.99s-5.85-.76-8.33-2.27c-2.48-1.51-4.44-3.64-5.87-6.37-1.43-2.73-2.15-5.85-2.15-9.34h0ZM613.44,649.04c0-2.61-.53-4.88-1.58-6.81-1.05-1.93-2.47-3.42-4.26-4.45-1.79-1.03-3.75-1.55-5.9-1.55s-4.1.5-5.87,1.51c-1.77,1.01-3.18,2.48-4.23,4.42-1.05,1.94-1.58,4.21-1.58,6.81s.53,4.95,1.58,6.91c1.05,1.96,2.46,3.45,4.23,4.48,1.77,1.03,3.72,1.55,5.87,1.55s4.11-.51,5.9-1.55c1.79-1.03,3.21-2.52,4.26-4.48,1.05-1.96,1.58-4.24,1.58-6.85h0ZM634.71,638.19c1.14-1.98,2.83-3.63,5.08-4.95,2.25-1.33,4.87-1.99,7.86-1.99s5.86.74,8.36,2.21c2.5,1.47,4.47,3.54,5.9,6.22,1.43,2.67,2.15,5.77,2.15,9.31s-.72,6.6-2.15,9.34c-1.43,2.73-3.4,4.86-5.9,6.37-2.5,1.51-5.29,2.27-8.36,2.27s-5.54-.66-7.79-1.99c-2.25-1.33-3.97-2.98-5.14-4.95v22.78h-5.74v-50.98h5.74v6.37h0ZM658.18,648.98c0-2.61-.53-4.88-1.58-6.81-1.05-1.93-2.47-3.41-4.26-4.42-1.79-1.01-3.75-1.51-5.9-1.51s-4.05.52-5.84,1.55c-1.79,1.03-3.22,2.52-4.29,4.48-1.07,1.96-1.61,4.22-1.61,6.78s.54,4.89,1.61,6.85c1.07,1.96,2.5,3.45,4.29,4.48,1.79,1.03,3.73,1.55,5.84,1.55s4.11-.51,5.9-1.55c1.79-1.03,3.21-2.52,4.26-4.48,1.05-1.96,1.58-4.26,1.58-6.91h0ZM677.36,638.19c1.14-1.98,2.83-3.63,5.08-4.95,2.25-1.33,4.87-1.99,7.86-1.99s5.86.74,8.36,2.21c2.5,1.47,4.47,3.54,5.9,6.22,1.43,2.67,2.15,5.77,2.15,9.31s-.72,6.6-2.15,9.34c-1.43,2.73-3.4,4.86-5.9,6.37-2.5,1.51-5.29,2.27-8.36,2.27s-5.54-.66-7.79-1.99c-2.25-1.33-3.97-2.98-5.14-4.95v22.78h-5.74v-50.98h5.74v6.37h0ZM700.83,648.98c0-2.61-.53-4.88-1.58-6.81-1.05-1.93-2.47-3.41-4.26-4.42-1.79-1.01-3.75-1.51-5.9-1.51s-4.05.52-5.84,1.55c-1.79,1.03-3.22,2.52-4.29,4.48-1.07,1.96-1.61,4.22-1.61,6.78s.54,4.89,1.61,6.85c1.07,1.96,2.5,3.45,4.29,4.48,1.79,1.03,3.73,1.55,5.84,1.55s4.11-.51,5.9-1.55c1.79-1.03,3.21-2.52,4.26-4.48,1.05-1.96,1.58-4.26,1.58-6.91h0ZM744.06,631.82l-20.82,50.86h-5.93l6.81-16.66-13.95-34.2h6.37l10.85,28.02,10.73-28.02h5.93ZM772.39,638.19c1.14-1.98,2.83-3.63,5.08-4.95,2.25-1.33,4.87-1.99,7.86-1.99s5.86.74,8.36,2.21c2.5,1.47,4.47,3.54,5.9,6.22,1.43,2.67,2.15,5.77,2.15,9.31s-.72,6.6-2.15,9.34c-1.43,2.73-3.4,4.86-5.9,6.37-2.5,1.51-5.29,2.27-8.36,2.27s-5.54-.66-7.79-1.99c-2.25-1.33-3.97-2.98-5.14-4.95v22.78h-5.74v-50.98h5.74v6.37h0ZM795.86,648.98c0-2.61-.53-4.88-1.58-6.81-1.05-1.93-2.47-3.41-4.26-4.42-1.79-1.01-3.75-1.51-5.9-1.51s-4.05.52-5.84,1.55c-1.79,1.03-3.22,2.52-4.29,4.48-1.07,1.96-1.61,4.22-1.61,6.78s.54,4.89,1.61,6.85c1.07,1.96,2.5,3.45,4.29,4.48,1.79,1.03,3.73,1.55,5.84,1.55s4.11-.51,5.9-1.55c1.79-1.03,3.21-2.52,4.26-4.48,1.05-1.96,1.58-4.26,1.58-6.91h0ZM815.04,619.7v46.69h-5.74v-46.69h5.74ZM822.68,648.98c0-3.53.71-6.64,2.15-9.31,1.43-2.67,3.4-4.74,5.9-6.22,2.5-1.47,5.29-2.21,8.36-2.21s5.66.65,7.89,1.96c2.23,1.3,3.89,2.94,4.98,4.92v-6.31h5.81v34.58h-5.81v-6.44c-1.14,2.02-2.83,3.69-5.08,5.02-2.25,1.33-4.87,1.99-7.86,1.99s-5.85-.76-8.33-2.27c-2.48-1.51-4.44-3.64-5.87-6.37-1.43-2.73-2.15-5.85-2.15-9.34h0ZM851.96,649.04c0-2.61-.53-4.88-1.58-6.81-1.05-1.93-2.47-3.42-4.26-4.45-1.79-1.03-3.75-1.55-5.9-1.55s-4.1.5-5.87,1.51c-1.77,1.01-3.18,2.48-4.23,4.42-1.05,1.94-1.58,4.21-1.58,6.81s.53,4.95,1.58,6.91c1.05,1.96,2.46,3.45,4.23,4.48,1.77,1.03,3.72,1.55,5.87,1.55s4.11-.51,5.9-1.55c1.79-1.03,3.21-2.52,4.26-4.48,1.05-1.96,1.58-4.24,1.58-6.85h0ZM865.33,649.04c0-3.57.71-6.7,2.15-9.37,1.43-2.67,3.42-4.74,5.96-6.22,2.54-1.47,5.46-2.21,8.74-2.21,4.25,0,7.75,1.03,10.51,3.09,2.75,2.06,4.57,4.92,5.46,8.58h-6.18c-.59-2.1-1.74-3.76-3.44-4.98-1.7-1.22-3.82-1.83-6.34-1.83-3.28,0-5.93,1.13-7.95,3.38-2.02,2.25-3.03,5.44-3.03,9.56s1.01,7.38,3.03,9.65c2.02,2.27,4.67,3.41,7.95,3.41,2.52,0,4.63-.59,6.31-1.77,1.68-1.18,2.84-2.86,3.47-5.05h6.18c-.93,3.53-2.78,6.36-5.55,8.49-2.78,2.12-6.25,3.19-10.41,3.19-3.28,0-6.19-.74-8.74-2.21-2.55-1.47-4.53-3.55-5.96-6.25-1.43-2.69-2.15-5.85-2.15-9.46h0ZM937.33,647.78c0,1.09-.06,2.25-.19,3.47h-27.64c.21,3.41,1.38,6.07,3.5,7.98,2.12,1.91,4.7,2.87,7.73,2.87,2.48,0,4.55-.58,6.22-1.74,1.66-1.16,2.83-2.7,3.5-4.64h6.18c-.93,3.32-2.78,6.03-5.55,8.11-2.78,2.08-6.23,3.12-10.35,3.12-3.28,0-6.22-.74-8.8-2.21-2.59-1.47-4.62-3.57-6.09-6.28-1.47-2.71-2.21-5.86-2.21-9.43s.71-6.71,2.15-9.4c1.43-2.69,3.44-4.76,6.03-6.22,2.59-1.45,5.56-2.18,8.93-2.18s6.18.72,8.71,2.15c2.52,1.43,4.47,3.4,5.84,5.9,1.37,2.5,2.05,5.33,2.05,8.49h0ZM931.4,646.58c0-2.19-.48-4.07-1.45-5.65-.97-1.58-2.28-2.78-3.94-3.6-1.66-.82-3.5-1.23-5.52-1.23-2.9,0-5.37.93-7.41,2.78-2.04,1.85-3.21,4.42-3.5,7.7h21.83Z"/>
    <g>
      <path class="cls-6" d="M564.51,395.25c5.11-.18,10.26-.17,15.52-.31.08-1.1.21-2.11.24-3.12.07-2.73.13-5.46.18-8.19-1.2.87-2.54,1.91-3.91,2.99-3.25,2.52-7.23,5.62-12.02,8.63"/>
      <path class="cls-4" d="M666.19,67.38v83.69c3.09-.42,11.49,5.13,11.49,5.13,0,.06.08.13.15.18s.15.08.34.17c.63-.46,1.32-.95,2.03-1.45.53.64,1.01,1.21,1.54,1.84,2.04-.75,4.15-1.17,4.86-3.99.9,1.48,3.28,1.71,1.82,3.9-.08.11-.05.45.01.47,1.73.69.41,2.02.79,2.95-.82.59-1.55,1.05-2.22,1.59-1.49,1.2-2.36,2.73-2.33,4.68.03,1.4.59,2,1.93,1.75,1.24-.23,2.43-.81,3.62-1.27.37-.15.69-.64,1.02-.63,1.49.05,2.13-.79,2.6-2.03.15-.42.71-.68,1.01-.95.8.63,1.49,1.18,2.37,1.87-.64.48-1.35,1.41-1.79,1.3-2.26-.57-3.42,1.12-5.43,2.12,2.62.76,4.81,1.35,6.96,2.06.95.32,2.6.88,2.6,1.33.01,2.11,1.77,2.61,2.76,3.81,1.46-1.17-1.07-2.15-.2-3.04,1.14.21,2.05.45,2.97.52,1.3.11,2.36.5,2.9,1.78.39.92-.06,1.83-1.02,1.89-1.09.07-2.19.01-3.07.01-.55,1.11-.92,1.86-1.38,2.8.48.48.88,1.08,1.44,1.37,1.35.72,3.28.48,3.83,2.45,2.38.28,2.94,2.66,4.69,3.81-1.55,1.97-1.09,3.83-.18,5.74.81,1.66,1.47,3.38,2.2,5.1,1.07.5,2.29,1.09,3.79,1.81-.81,1.51-1.46,2.69-2.09,3.89-.64,1.21-.37,2.03.87,2.4.9.27,1.84.53,2.77.55,1.59.04,3.23-.71,3.81-1.95.61-1.28,1.42-1.49,2.43-1.86.04.12,1.96,5.85,1.99,5.92-.95.27-1.89.55-2.97.87.27.62.36,1.04.6,1.37.86,1.23,2.19,1.23,3.5,1.24,1.16,0,2.33,0,3.18,1.3-3.11,1.58-6.16,2.04-9.66,1.18,1.25,2.08,2.27,3.73,3.25,5.4.93,1.59,3.2,2.26,3.36,4.78-.98-.39-1.74-.59-2.4-.97-1.2-.7-2.29-.57-3.37.21-.49.34-1.06.59-1.53.97-1.08.86-2.19,1.11-3.6.83-2.1-.42-2.52.09-2.41,2.38q.12,2.59-2.18,3.61c-.72.31-1.47.53-2.16.88-.37.19-.65.56-1.01.88.32.25.45.41.58.43,4.03.41,8.06.81,12.1,1.18,1.11.1,2.39-.02,3.01,1.11,1.07,1.94,2.71,2.17,4.63,1.94.67-.08,1.37-.01,2.24-.01-.25,1.63.74,2.07,2,2.39,1.58.4,3.18.84,4.66,1.51,1.63.73,1.86,1.82,1,3.39-.21.37-.49.71-.77,1.03-2.66,3.04-4.99,6.42-8.8,8.24-.23.11-.41.31-.6.48-1.07,1.04-1.19,1.94,0,2.81.92.68,2.12,1.09,3.26,1.33,1.58.32,3.05.8,4.39,1.61-.02.18-.05.36-.07.54l-2.45.3c-3.72.45-7.27,1.41-10.38,3.63-2.63,1.88-2.88,3.25-.92,5.76.52.67,1.22,1.19,1.84,1.78.42.39.84.79,1.58,1.49-1.84.3-3.28.54-4.78.79.35.74.6,1.25.9,1.89-2.48-.03-4.61.36-5.87,2.55.27.49.51.9.72,1.28-1.01.94-2.65.81-3.09,2.34,1.04,1.23,2.45,1.33,3.79,1.58.84.16,1.72.25,2.52.55.87.32,1.01,1.45.2,1.77s-1.86.47-2.68.25c-1.82-.48-3.56-1.24-5.48-1.94-.05,1.43-.97,1.18-1.86,1.07-.73-.1-1.51-.38-2.17-.2-1.37.37-2.65,1.28-4.02,1.44-1.47.17-3.02-.27-4.29-.42-1.01,1.83-1.7,3.53-2.79,4.9-1.07,1.35-2.55,2.36-3.84,3.53.11.19.21.37.32.56,1.02-.33,2.15-.48,3.05-1.02,2.07-1.23,4.05-2.61,6.02-3.99,1.24-.86,2.3-2.04,4.05-2.3.39,1.81,2.66,2.36,2.57,4.51-.46.04-.93.22-1.27.08-1.84-.81-2.99.02-4.26,1.33-1.17,1.19-2.72,2.04-4.16,2.94-1.16.74-2.47,1.24-3.6,2.03-.86.6-1.52,1.47-2.2,2.16.95,1.69,2.09,2.11,3.46,1.47,2.33-1.11,4.74-2.12,6.86-3.55,2.34-1.58,4.38-3.6,6.56-5.43,1.79-1.51,6.2-2.12,7.76-.79,1.85,1.58,3.71,2.05,5.95,1.17.32-.12.67-.13,1.02-.18,2.16-.22,2.65.34,2.12,2.43-.25,1-.81,2.17.31,2.84,1.31.79.79,1.81.48,3.04,1.38.2,2.56.34,3.73.53,1.16.19,2.41.22,3.15,1.63-.39.16-.67.37-.96.39-4.81.15-7.71,3.81-11.34,6.14-.15.1-.12.47-.2.81,2.73,1.96,5.9.07,8.76.91.22,1.51-.46,2.1-1.84,2.22-1.46.13-3.12,0-4.3.66-1.91,1.07-3.89,1.68-5.95,2.22-.09.02-.13.27-.25.54.25.16.5.45.8.49,1.19.17,2.39.24,3.59.39,1.17.14,2.21.48,2.41,1.89.2,1.4-.2,2.26-1.63,2.87-1.01.44-2.14.62-3.2.96-2.12.69-4.26,1.35-6.34,2.15-1.6.62-3.13,1.44-4.68,2.17-1.25.58-2.56,1.07-3.72,1.79-.71.44-1.2,1.24-1.8,1.9,1.32,1.63,2.9,1.35,4.29,1.55,1.49.21,2.99.27,4.56.39-1.49,3.36-3.37,4.14-6.11,2.76-1-.5-1.96-1.1-2.99-1.54-.69-.29-1.49-.62-2.19-.53-2.62.34-5.41.48-6.47,3.65-.09.28-.35.5-.82,1.14h8.5c-.41,2.29-1.18,2.92-3.39,2.74-2.4-.2-4.8-.54-7.2-.81-1.44-.15-2.84-.17-4.24,1.1,1.63.34,2.96.52,4.23.89,2.71.8,5.4,1.7,8.1,2.56,1.5.48,2.8.59,3.76-1.1.42-.76,1.48-1.18,2.25-.49,1.3,1.17,2.44,2.54,3.79,3.98-1.43.75-2.94,1.01-4.46,1.19-2.01.24-3.62.77-4.89,2.74-1.89,2.92-5.72,2.38-6.86-.92-.73-2.11-2.08-2.66-3.98-2.99-1.58-.28-3.18-.76-4.65-1.42-2.97-1.34-5.86-2.86-8.79-4.29-.3-.14-.65-.18-.97-.26l-11.71-6.47v61.38l11.51,2.15c.57.18,1.05.36,1.54.48,7.05,1.71,14.1,3.41,21.15,5.1h67.69v-207.06h38.18l-140.07-132.91Z"/>
      <path class="cls-7" d="M511.62,404.82c-15.75-4.75-28.37-15.06-35.16-20.62-1.63-1.33-2.92-2.38-3.78-2.97-4.07-2.79-8.29-2.65-12.76-2.5-3.54.11-7.2.23-11.06-1.02-.29-.06-.56-.15-.79-.24-.84-.32-8.27-3.32-8.71-10.42-.46-7.45,4-10.61,4.19-10.75l.03.04-.32-2.45c-.02-.17.1-.33.27-.35l2.87-.37-.32-2.52c-.06-.4.23-.76.63-.81l17.97-2.34c.4-.05.76.23.82.63l.26,2,7.75-1.02c.88-.11,1.7.51,1.81,1.4.12.88-.5,1.69-1.39,1.81l-7.75,1.01.37,2.87,7.56-1c.88-.11,1.69.51,1.81,1.4.11.88-.51,1.69-1.4,1.81l-7.56.99.28,2.19c.06.4-.23.76-.62.82l-17.98,2.33c-.4.06-.76-.23-.82-.63l-.3-2.33-2.87.37c-.17.02-.32-.1-.34-.27l-.22-1.64c-.86,1.24-1.8,3.37-1.6,6.62.28,4.59,4.84,6.9,6.44,7.57l.79.26c3.37,1.12,6.64,1.02,10.1.9,4.78-.16,9.72-.32,14.64,3.06.97.66,2.3,1.75,3.98,3.13,7.35,6.01,21.7,17.74,39.21,21.34,1.43-.4,2.86-.81,4.28-1.2v-59.04c-3.37,1.16-4.31.62-6.37-.7,1.68-2.1,4.01-2.33,6.37-2.49v-5.01c-2.15.61-4.01,1.14-6.19,1.75.52-1.62,1.37-2.17,2.54-2.43,1.02-.22,2.05-.39,3-.76.24-.09.49-.35.65-.63v-.91c-.18-.25-.47-.5-.73-.63-1.21-.62-2.34-.24-3.41.44-.72.46-1.42,1-2.19,1.35-1.82.85-2.26.66-3.46-1.41.75-.76,1.52-1.54,2.59-2.62-3.54-.64-6.38-.16-9.1,1.37-.09-.2-.19-.4-.29-.6,1.02-.87,2.05-1.75,3.11-2.66-1.08-1.88-2.71-2.86-4.33-3.81-1.06-.62-2.21-.55-3.16.22-3.53,2.84-7.92,3.24-12.09,4.17-1.69.39-3.39.43-4.7,1.77-.34.34-.9.64-1.36.65-.63.02-1.55-.06-1.82-.45-.27-.38,0-1.3.29-1.84.36-.66,1.07-1.12,1.51-1.75.57-.81,1.37-1.63.65-2.89-.44-.07-.94-.15-1.44-.22-3.24-.43-6.2-1.42-8.41-4.03-.43-.51-1.05-.88-1.59-1.3-1.14-.89-2.32-1.03-3.6-.25-.74.45-1.49.88-2.29,1.2-.49.2-1.08.15-1.67.22-.03-2,2.78-1.42,2.55-3.5-1.02.11-2.02.34-3,.29-.48-.03-1.22-.52-1.32-.93-.1-.41.34-1.2.75-1.42.62-.32,1.44-.43,2.15-.36.71.08,1.38.48,2.22.81-.13-.9-.22-1.65-.33-2.41-.67-.41-1.34-.81-1.98-1.23-.93-.61-1.69-1.52-1.28-2.57.29-.75,1.18-1.4,1.95-1.8.97-.52,2.24-.55,3.13-1.16.86-.57,1.4-1.62,2.02-2.4.7.52,1.01.74,1.67,1.23-.08-1.69.73-2.26,1.84-2.8,1.3-.63,2.61-1.44,3.58-2.49.74-.81,1.48-1.34,2.49-1.68,1.52-.52,1.71-.94,1.56-2.96-.31-.03-.64-.1-.97-.1-1.16,0-2.36.19-3.48.01-1.8-.28-3.18-1.36-4-2.98-.2-.41-.09-1.28.22-1.59.29-.3,1.04-.25,1.58-.19.3.03.58.35.84.57,2.44,2.08,5.33,2.59,8.25,2.53.35-.97.65-1.77.94-2.57-2.01-1.59-4.86-1.9-6.93-4.45,1.49-.1,2.48-.15,3.48-.24.77-.06,1.57-.06,2.3-.27,1.07-.32,1.37-1.11.69-1.98-.93-1.2-1.96-2.33-3.06-3.38-.27-.25-.99-.2-1.42-.06-1.07.36-1.99.32-2.79-.53.48-1.91.76-3.86,3.31-4.23.15.43.2,1.02.51,1.32.53.5,1.21,1.03,1.86,1.1.34.04.91-.88,1.12-1.45.33-.91.44-1.89.69-3.02.79-.69,1.7-1.61,2.72-2.39,3.88-2.99,7.65-6.32,13.18-4.52.16.05.34.07.51.07,2.03-.06,3.82-.66,5.54-2.36-2.43-1.71-4.68-3.3-6.93-4.87.25-.57.5-1.15.83-1.88-1.21.36-2.49.37-3.1,1.01-1.09,1.14-1.25.21-1.86-.33,1.63-1.44,3.99-1.91,4.33-4.66-.53-.22-1.09-.57-1.7-.69-1.96-.37-6.37,1.44-7.89,2.97-2.55,2.54-5.9,3.13-9.16,3.88-.11-.16-.22-.33-.33-.49,1.32-1.47,2.64-2.94,4.29-4.8-1.37-.39-2.23-.83-3.09-.83-3.03,0-5.62-.83-7.47-3.39-.08-.11-.31-.13-.55-.21-2.77.75-5.5,1.99-8.76,2.17,1.02-2.04,2.59-3.07,4.09-4.2.94-.7,2.55-1.02,1.84-2.87-.08-.19.45-.66.74-.95.49-.46,1.02-.89,1.59-1.38-.52-.69-1.12-1.24-1.4-1.92-.67-1.63-1.94-2.04-3.51-2.12-1.02-.06-2.07-.2-3.06-.46-1.96-.53-2.21-1.21-1.13-2.95,1.18-1.92,2.43-3.81,3.62-5.68-.79-.53-1.61-1-2.31-1.58-1.11-.91.14-1.78.25-2.39-1.28-.84-2.49-1.39-3.38-2.26-2.19-2.15-2.08-4.12.27-6.05.55-.46,1.37-.61,2.08-.86,1.28-.44,2.58-.85,3.78-1.23.13-1.89.24-3.5.35-5.2,1.86-.69,3.6-1.33,5.27-1.94-.77-1.53-1.51-3.01-2.26-4.49-.84-.89-2.17-1.49-1.68-3.6,1.3.17,2.6.34,3.91.51-.06-.21-.04-.43-.15-.52-.62-.51-1.67-.75-1.17-1.94.44-1.06,1.11-1.69,2.38-1.53,1.16.15,1.94-.42,2.52-1.43.31-.55.84-.98,1.3-1.5.95.64,1.68,1.3,2.54,1.65.73.3,1.82.6,2.38.27,1.46-.86,2.99-.85,4.52-.78,2.3.11,4.21-.25,4.86-2.86-3.24-2.33-4.24-5.15-2.83-7.95-.65-1-1.37-1.98-1.95-3.03-.6-1.07-.34-2.17.76-2.63,2.99-1.28,4.77-3.86,6.9-6.09.62-.66,1.41-1.16,2.1-1.71,3.08,1.87,4.52,4.82,6.18,7.43,3.37-1.26,3.46-1.55,3.59-4.73.06-1.61.57-3.19.9-4.79.03-.12.25-.2.37-.3.69.18,1.38.36,2.28.6-.04-2.94,1.84-3.69,4-4.11,1.76-.34,3.53-.62,5.31-.92v-92.95l-139.68,131.27,40.19.33v206.73l80.22-.02c.38-.08.75-.17,1.12-.27,2.62-.72,5.22-1.47,7.84-2.22"/>
      <path class="cls-3" d="M473.16,357.95c.97-.13,1.71-.67,1.64-1.22-.08-.55-.93-.89-1.9-.76-.97.13-1.71.67-1.63,1.22.07.55.92.89,1.89.76"/>
      <path class="cls-3" d="M472.51,351.88c.97-.13,1.71-.67,1.64-1.22-.08-.55-.93-.89-1.9-.76-.97.13-1.71.67-1.63,1.22.07.55.92.89,1.89.76"/>
      <path class="cls-6" d="M622.56,336.05c1.16-.03,2.4.3,3.22-1.07.21-.35,1.28-.34,1.91-.22.64.11,1.23.54,1.78.81,2.31-1.27,3.01-2.97,2.19-5.45-1.04-3.19-1.9-6.44-2.76-9.69-.32-1.21-1.08-1.5-2.17-1.82-2.87-.86-5.76-.63-8.67-.69-2.7-.05-5.08.79-7.28,2.19-3.48,2.23-4.66,6.58-3.48,9.68,1.25,3.32,1.77,6.92,1.15,10.45-.88,4.96-1.14,9.93-.99,14.94.41,12.59.86,25.18,1.3,37.77.02.66.2,1.32.34,2.22h2.92c7.42,0,14.84-.04,22.27.02,2.32.01,4.67.09,6.96.44,6.93,1.06,13.84,2.26,20.76,3.41v-52.7c-2.37.51-4.34-.01-6.3-.69-1.3-.46-2.59-.94-3.93-1.3-1.07-.29-2.19-.48-3.11.47,1.35,2.99,1.33,2.97-1.76,4.22-.99.41-1.89,1.04-2.74,1.51.62,3.14-.03,3.96-3.13,4.1.13-3.2-2.01-3.74-4.93-3.45.42-.79.6-1.26.88-1.65.36-.48.89-.84,1.21-1.34.53-.86,1.42-1.84,1.32-2.66-.27-2.15-.69-4.4-1.66-6.3-.61-1.19-2.33-1.82-3.55-2.69-3.06,2.75-4.33,5.47-3.81,9.39.15,1.19.02,2.42.11,3.62.08,1.23-.41,1.97-1.61,2.26-.81.2-1.62.41-2.73.69.2-3.87.15-7.42-2.94-9.97-1.16-.18-2.7.02-3.61-.65-1.91-1.38-3.48-3.22-4.87-5.57.97-.11,1.61-.25,2.26-.26,1.81-.03,3.62.02,5.43-.02"/>
      <path class="cls-6" d="M643.54,324.08l.07-.62c-3.38-1.32-6.76-2.64-10.57-4.14.17,2.04.3,3.61.45,5.4,3.52-.22,6.8-.28,10.05-.64"/>
      <path class="cls-6" d="M534.66,166.13c-1.23,2.85.07,1.67.13,2.94,2.51-1.09,4.45-.69,6.46.72,1.34.94,2.76-.06,3.13-1.7.02-.09-.18-.23-.33-.43-.51.37-1.02.75-1.33.97-2.7-.53-3.39-2.8-4.75-4.39-.85-1-.69-1.8.11-2.73,1.08-1.23,2.32-1.56,3.93-1.26,1.62.29,3.35.81,4.9-.4-.55-.97-1.37-1.79-1.48-2.7-.26-2.07-1.64-2.68-3.29-3.13-.86-.23-1.74-.42-2.6-.63.88-.96,1.75-1.49,2.68-1.9,1-.45,2.05-.78,3.37-1.27-1.42-1.22-1.54-2.33-.21-3.27q-1.62-2.65-.5-4.87c2.78.59,3.8,4.23,7.25,4.32-.37-2.12-1.44-4.14-.14-5.81-.57-1.33-1.14-2.39-1.48-3.52-.15-.5-.01-1.25.28-1.68,1.21-1.77,1.25-1.75-.15-3.13-.32-.32-.58-.69-.83-1,2.77-.92,5.38-1.79,8.23-2.73v2.81c1.49.5,3.16-.61,4.18,1.02,1.21-3.3,4.13-4.27,7.09-5.52.66,1.4,1.68,1.58,2.94,1.82,3.13.59,3.79,2.21,2.96,4.8-.22.69-.48,1.36-.77,2.21h4c.18-1.44.32-2.66.5-4.15,2.22.82,3.99.72,5.57-.73.41-.36,1.11-.53,1.68-.55.65-.02,1.7.03,1.86.38.32.69.33,1.65.13,2.43-.15.6-.81,1.08-1.23,1.63-.5.65-.97,1.33-1.5,2.04,1.4,1,1.95.21,2.31-.69,1.14-2.86,3.38-3.54,6.22-3.53,2.73,0,5.48-.27,8.21-.56,3.3-.34,6.41,1.68,7.15,4.82.32,1.31.95,2.35,2.26,3.04.3-.41.57-.73.81-1.08,1.14-1.75,1.61-3.44-.22-5.08-.43-.39-.81-.97-.95-1.52-.14-.58-.19-1.47.14-1.82.36-.36,1.35-.52,1.82-.29,1.22.61,2.33,1.47,3.44,2.28.25.18.54.71.45.87-.98,1.68.54,3.12.4,4.78-.15,1.84.37,3.75.6,5.62.11.87.43,1.49,1.56,1.26.5-1.49-.31-2.85-.51-4.26-.16-1.1-.04-2.39,1.13-2.52,1.44-.17,2.99.18,4.45.5,1.04.22,2.01.76,3.13,1.21-1.35,3.08-3.75,5.89-2.8,9.41-1,1.07-1.85,1.98-2.76,2.96-2.04.28-4.21.57-6.27.86-.51,1.71.29,2.76.97,3.86.67,1.08,1.41,1.31,2.58.67,4.16-2.27,8.42-2.05,12.7-.27.62.25,1.23.57,1.84.86,2.52-2.05,4.96-4.05,7.6-6.2.43-1.47-.36-2.97-1.18-4.37-.83-1.41-.95-2.8-.26-4.18.7-1.42,1.61-2.73,2.44-4.08,0-.04-.01-.08-.01-.13l.06.07s-.03.04-.04.06c.13,1.15.92,1.56,1.81,1.48.15,1.35.27,2.47.41,3.67-.4.12-.88.26-1.4.42v4.3c1.51-.82,2.71-2.31,4.4-.89.68-1.96-1.49-1.95-1.92-3.21,1-3.38,3.79-1.41,5.72-2.02.56.84,1.02,1.54,1.46,2.2-1.09,1.09-2.06,2.08-3.04,3.06.07.16.15.32.22.47,1.61-.22,3.21-.43,4.71-.63.57,1.92-.18,3.06-1.23,4.21-1.23,1.34-1.25,2.26.02,3.3,1.31,1.07,2.9,1.55,4.83,1.27-.44-1.24-.8-2.25-1.23-3.44,1.97-.11,3.21,1.25,4.58,1.91V63.48L595.32,0l-69.22,65.08v94.93c3.91,1.23,9.37,4.25,8.56,6.13"/>
      <path class="cls-3" d="M662.02,346.05v-8.8c-1.82-.07-3.44.34-4.75,1.58-.3,1.74-.53,3.08-.76,4.4,1.58,1.22,3.78,1.33,5.51,2.82"/>
      <path class="cls-6" d="M580.45,383.63c-1.21.87-2.54,1.92-3.91,2.99-3.25,2.53-7.23,5.62-12.02,8.63,5.11-.17,10.26-.16,15.52-.3.08-1.11.21-2.11.24-3.12.07-2.73.13-5.46.18-8.2"/>
      <path class="cls-6" d="M587.27,318.98v-10.97c-1.63,1.47-1.65,1.32-3.65,1.56-2.37.29-4.75.73-7.04,1.38-2.32.67-2.59,2.08-.84,3.74,1.9,1.8,4.23,2.92,6.68,3.77,1.54.53,3.09.99,4.85.52"/>
      <path class="cls-6" d="M581.78,322.94c-3.69-2.29-7.58-2.94-11.86-1.11,2.91,4.28,6.74,5.22,11.2,4.28.62-.13,1.49-.77,1.59-1.31.11-.55-.4-1.53-.93-1.86"/>
      <path class="cls-6" d="M580.83,301.45c-.58-.25-1.16-.72-1.75-.7-2.52.04-3.12,2.15-4.38,4.1,2.2-.04,3.9-.49,5.3-1.67.44-.38.56-1.14.83-1.73"/>
      <path class="cls-6" d="M582.38,304.23c1-.88,1.65-1.55,2.4-2.09,3.33-2.38,3.15-4.83-.75-6.72-.88,2.77-1.96,5.44-1.65,8.81"/>
      <path class="cls-6" d="M564.43,300.91c2.08,0,3.53-.15,4.94.04,1.82.25,2.99-.64,3.95-1.89,2.53-3.27,5.01-6.59,7.48-9.9,1.37-1.84,1.62-4,2.05-6.42-.6.25-.87.3-1.05.45-1.97,1.6-3.37,3.95-6.1,4.58-.35.08-.69.54-.89.9-2.17,3.8-5.52,6.6-8.34,9.85-.53.62-1.06,1.23-2.05,2.38"/>
      <path class="cls-3" d="M561.71,344.24c.63.04,1.26.08,1.9.11-.41-.85-1.02-1.03-1.9-.11"/>
      <path class="cls-3" d="M568.57,134.91c.34.13.81-.09,1.51-.19-2.38-2.54-4.93-3.12-7.86-2.35,2.12.86,4.22,1.73,6.35,2.54"/>
      <path class="cls-3" d="M536.81,174.27c-.67-.46-1.12-.76-2.15-1.46.14,1.12.22,1.69.32,2.51.72-.41,1.17-.67,1.83-1.05"/>
      <path class="cls-6" d="M652.01,330.5c-2.69,1.61-4.54,3.87-5.89,7.08,4.48.07,8.15-1.04,11.13-5.09-.79-.58-1.64-1.05-2.29-1.72-.97-.98-1.79-.97-2.95-.27"/>
      <path class="cls-6" d="M526.1,400.88l9.01-2.22c7.44-1.04,14.81-2.4,22.26-3.01.08,0,.16-.01.24-.02,7.12-3.79,12.72-8.14,17.01-11.48,2.33-1.82,4.25-3.32,5.91-4.34.1-4.54.22-9.08.45-13.62.34-6.61.4-13.29,2.31-19.74.9-3.05,1.72-6.15,2.27-9.28.37-2.1.32-4.28.2-6.42-.05-.9-.75-1.77-1.16-2.64-.69.18-1.08.18-1.33.37-1.98,1.51-4.28,1.66-6.64,1.65-.95,0-1.89.15-2.84.23-1.91.15-3.41.88-4.52,2.57-1.04,1.57-.72,2.97.36,4.43-1.44.22-2.6.39-3.89.58.46,2.68-2.45,4.7-.22,7.73-.96-.64-1.39-.93-1.79-1.19v2.44h-2.01c-.11.66-.15,1.27-.33,1.82-.55,1.62-1.04,1.63-2.66.84-2.17-1.07-4.03-2.42-5.48-4.7-.65.69-1.12,1.19-1.81,1.94,1.64.39,3.04.2,3.95,1.6,1.23,1.91,3.05,3.01,5.48,2.71.76-.09,1.34.22,1.37.6-1.35,1.47-2.48,2.69-3.75,4.06-.06-.72-.13-1.29-.18-1.86-.2-2.21-.75-2.84-2.91-2.58-1.68.2-3.32.83-4.97,1.28-.71.18-1.41.37-2.24.59-.19-1.04-.33-1.78-.48-2.59.91-.69,1.77-1.35,2.46-1.87-.58-.86-.89-1.84-1.55-2.19-2.3-1.23-4.77-2.06-7.45-1.63-.5.08-1.13.49-1.37.93-1.09,1.96-1.04,1.98-3.22,1.7-.5-.06-1-.1-1.48-.15,0,0-4.94-3.04-9.01-4.26v57.73Z"/>
      <path class="cls-6" d="M607,284.52c1.02,1.93,2.31,3.63,4.54,4.78,1.91-2.36,4.7-2.56,7.53-2.72.43-.02.83-.34,1.49-.63-1.04-.94-1.83-1.73-2.71-2.41-1.66-1.28-2.1-3-2-5.17h5.74v-3.56c1.79-1.66,4.57-.93,6.16-3.15-.88-2.24-.28-5.24-3.35-6.64.67-.34,1.15-.6,1.63-.85-.03-.18-.06-.35-.08-.53-1.48-.02-2.99.15-4.43-.12-1.88-.34-3.32.24-4.78,1.31-2.87,2.13-5.82,4.16-9.02,6.44-.6,2.71.83,6.1-.95,9.1,1.54,1.59,1.57,2.18.23,4.14"/>
      <path class="cls-6" d="M649.72,327.95c.22-.36.29-1.02.11-1.37-.18-.34-.79-.63-1.2-.62-1.66.04-3.01.79-4.2,2.15,1.1.65,2.05,1.2,3.53,2.06.62-.76,1.28-1.44,1.77-2.22"/>
      <path class="cls-6" d="M621.55,312.43c.02.14.04.29.06.43,1.43.46,2.87.86,4.28,1.38,5.08,1.9,10.26,3.42,15.59,4.49,2.38.48,4.4.18,6.36-1.07,1.27-.81,2.62-1.12,4.13-1.24,1.56-.11,3.26.11,4.83-.9-.51-1.41-1.06-2.66-1.42-3.97-.44-1.61-1.37-2.7-2.84-3.44-1.77-.88-3.66-1.63-5.22-2.82-3.27-2.5-6.64-2.3-10.19-.95-.15.06-.36.04-.49.13-.9.6-1.78,1.21-2.66,1.84-.81.58-1.58,1.24-2.43,1.76-.64.39-1.86.48-1.98.94-.35,1.28-1.28,1.04-2.12,1.31-1.98.62-3.93,1.4-5.88,2.1"/>
      <path class="cls-6" d="M589.84,274.64c-.78-.9-1.38-.57-1.84,0-.4.5-.66,1.11-1.06,1.81.71.4,1.25.72,2.02,1.15.35-1.16.63-2.1.88-2.95"/>
      <path class="cls-6" d="M611.52,306.68c3.44.14,6.89.21,10.34.28,1.57.03,4.8-4.05,4.42-5.56-.06-.25-.21-.47-.36-.68-2.37-3.5-5.14-6.63-8.54-9.37-3.3,1.78-6.54,3.53-9.89,5.34.21,2.15.41,4.17.6,5.99-.83.73-1.44,1.26-2.24,1.97,1.04.38,1.95.44,2.38.93.94,1.07,2.12,1.05,3.29,1.1"/>
      <path class="cls-6" d="M588.12,259.85c-1.89,4.19-.8,7.66.96,11.08,1.35-3.72,1.12-7.27-.96-11.08"/>
      <path class="cls-3" d="M642.66,139.12s.01.08.02.13c.01-.02.03-.04.04-.06l-.06-.07Z"/>
    </g>
  </g>
</svg>